<svg width="256" height="256" viewBox="0 0 256 256" fill="none" xmlns="http://www.w3.org/2000/svg">
<rect x="86.6521" y="10.8176" width="123.802" height="177.071" rx="11" transform="rotate(13.2017 86.6521 10.8176)" fill="white" stroke="#363636" stroke-width="18" stroke-linejoin="round"/>
<rect x="28.6059" y="59.8616" width="123.802" height="177.071" rx="11" transform="rotate(-4 28.6059 59.8616)" fill="white" stroke="#363636" stroke-width="18" stroke-linejoin="round"/>
<path d="M132.528 191.163C128.936 191.414 126.473 189.882 125.139 186.567L112.189 156.197L82.1343 165.065L74.1241 190.285C73.6232 191.723 72.8056 192.933 71.6713 193.915C70.6368 194.889 69.2716 195.436 67.5757 195.555C65.5806 195.694 63.786 195.118 62.192 193.826C60.598 192.534 59.7347 190.94 59.6022 189.045C59.5115 187.748 59.756 186.227 60.3357 184.483L65.2748 169.101C64.6623 168.943 64.1994 168.775 63.8862 168.596C61.2018 167.481 59.7515 165.377 59.5353 162.284C59.4097 160.489 59.8004 158.908 60.7073 157.541C61.7139 156.168 63.0512 155.222 64.7192 154.704L70.1719 153.12L88.3836 95.309C88.8775 93.7708 89.745 92.5573 90.986 91.6686C92.227 90.7798 93.5957 90.2831 95.0921 90.1785C96.6882 90.0669 98.1127 90.3683 99.3655 91.0826C100.618 91.7969 101.603 92.9811 102.321 94.6351L138.135 178.892C138.249 179.085 138.49 179.669 138.859 180.646C139.221 181.523 139.437 182.46 139.507 183.457C139.64 185.353 139.06 187.098 137.768 188.692C136.469 190.186 134.722 191.01 132.528 191.163ZM106.278 142.626L96.513 119.1L87.268 148.166L106.278 142.626Z" fill="#363636"/>
</svg>
